<svg xmlns="http://www.w3.org/2000/svg" width="150.062" height="52.188" viewBox="0 0 150.062 52.188">
  <defs>
    <style>
      .cls-1 {
        fill: #fff;
        fill-rule: evenodd;
      }
    </style>
  </defs>
  <path id="Pixelated_Paradise_copia" data-name="Pixelated Paradise! copia" class="cls-1" d="M42.042,56.634a7.106,7.106,0,0,1-1.968,2.505,8.531,8.531,0,0,1-2.928,1.513,12.406,12.406,0,0,1-3.6.5H29.744v6.832h-5.01V45.214h9.305a10.953,10.953,0,0,1,3.66.569,7.774,7.774,0,0,1,2.733,1.611,7.045,7.045,0,0,1,1.724,2.489,8.274,8.274,0,0,1,.6,3.2v0.065A7.988,7.988,0,0,1,42.042,56.634Zm-4.36-3.449a3.107,3.107,0,0,0-1.09-2.57,4.615,4.615,0,0,0-2.977-.878H29.744V56.7h3.969a4.075,4.075,0,0,0,2.928-.992,3.258,3.258,0,0,0,1.041-2.456V53.185Zm8.362-4.555V44.238H51.25V48.63H46.044Zm0.13,19.359V50.55h4.945V67.989H46.174Zm20.335,0L63,62.556l-3.514,5.433H54.308l6.117-8.85L54.536,50.55h5.3l3.254,5.076,3.286-5.076h5.173l-5.889,8.492,6.149,8.947h-5.3Zm24.516-7.613q-0.017.261-.049,0.618H78.84a4.165,4.165,0,0,0,1.48,2.554,4.43,4.43,0,0,0,2.782.862,5.51,5.51,0,0,0,2.212-.423,7.524,7.524,0,0,0,2.017-1.367l2.831,2.505a8.775,8.775,0,0,1-2.993,2.391,9.285,9.285,0,0,1-4.132.862,9.936,9.936,0,0,1-3.628-.651,8.389,8.389,0,0,1-2.9-1.855,8.573,8.573,0,0,1-1.9-2.847,9.444,9.444,0,0,1-.683-3.66V59.3a9.753,9.753,0,0,1,.635-3.514,8.933,8.933,0,0,1,1.773-2.9,8.27,8.27,0,0,1,6.214-2.668,8.5,8.5,0,0,1,3.774.781,7.681,7.681,0,0,1,2.652,2.1,8.739,8.739,0,0,1,1.562,3.026,12.523,12.523,0,0,1,.5,3.563v0.065Q91.041,60.116,91.025,60.376Zm-5.97-5.157a3.243,3.243,0,0,0-2.505-1.025A3.321,3.321,0,0,0,80.027,55.2a5.061,5.061,0,0,0-1.253,2.7h7.451A4.818,4.818,0,0,0,85.054,55.219Zm9.891,12.77V44.238H99.89V67.989H94.945Zm19.814,0V66.1a6.862,6.862,0,0,1-2.18,1.611,7.175,7.175,0,0,1-3.091.6,7.735,7.735,0,0,1-2.326-.342,5.454,5.454,0,0,1-1.9-1.025,4.894,4.894,0,0,1-1.285-1.676,5.277,5.277,0,0,1-.472-2.294V62.914a5.473,5.473,0,0,1,.52-2.473,4.751,4.751,0,0,1,1.448-1.724,6.5,6.5,0,0,1,2.213-1.025,11.064,11.064,0,0,1,2.847-.342,12.18,12.18,0,0,1,2.326.2,14.661,14.661,0,0,1,1.936.52V57.773a2.965,2.965,0,0,0-.944-2.375,4.183,4.183,0,0,0-2.8-.813,11.61,11.61,0,0,0-2.521.244,17,17,0,0,0-2.294.7L105,51.754a19.436,19.436,0,0,1,2.993-1.009,15.763,15.763,0,0,1,3.774-.39q4.067,0,5.921,1.985a7.786,7.786,0,0,1,1.855,5.531V67.989h-4.783Zm0.1-7.028a7.588,7.588,0,0,0-1.448-.472,7.816,7.816,0,0,0-1.708-.179,4.413,4.413,0,0,0-2.5.618,2.028,2.028,0,0,0-.911,1.789v0.065a1.827,1.827,0,0,0,.748,1.562,3.2,3.2,0,0,0,1.952.553,4.372,4.372,0,0,0,2.814-.846,2.7,2.7,0,0,0,1.058-2.212V60.961Zm17.016,7.044a7.786,7.786,0,0,1-2.18.276,8.118,8.118,0,0,1-2.066-.244,3.677,3.677,0,0,1-1.594-.862,4.131,4.131,0,0,1-1.041-1.611,7.217,7.217,0,0,1-.374-2.522V54.78h-2.083V50.55h2.083V46.093h4.945V50.55h4.1v4.23h-4.1V62.23a1.453,1.453,0,0,0,1.594,1.692,5.032,5.032,0,0,0,2.44-.618v3.969A7.67,7.67,0,0,1,131.873,68.005Zm21.685-7.63q-0.017.261-.049,0.618H141.373a4.164,4.164,0,0,0,1.481,2.554,4.429,4.429,0,0,0,2.782.862,5.509,5.509,0,0,0,2.212-.423,7.512,7.512,0,0,0,2.017-1.367l2.831,2.505a8.78,8.78,0,0,1-2.993,2.391,9.287,9.287,0,0,1-4.132.862,9.936,9.936,0,0,1-3.628-.651,8.391,8.391,0,0,1-2.9-1.855,8.57,8.57,0,0,1-1.9-2.847,9.435,9.435,0,0,1-.683-3.66V59.3a9.753,9.753,0,0,1,.634-3.514,8.941,8.941,0,0,1,1.773-2.9,8.271,8.271,0,0,1,6.215-2.668,8.5,8.5,0,0,1,3.774.781,7.682,7.682,0,0,1,2.651,2.1,8.741,8.741,0,0,1,1.562,3.026,12.523,12.523,0,0,1,.5,3.563v0.065Q153.574,60.116,153.558,60.376Zm-5.97-5.157a3.243,3.243,0,0,0-2.5-1.025,3.322,3.322,0,0,0-2.522,1.009,5.067,5.067,0,0,0-1.253,2.7h7.451A4.817,4.817,0,0,0,147.588,55.219Zm22.254,12.77V65.506a7.8,7.8,0,0,1-2.2,2.018,6.082,6.082,0,0,1-3.237.791,7.745,7.745,0,0,1-2.961-.586,7.315,7.315,0,0,1-2.538-1.741,8.663,8.663,0,0,1-1.773-2.831,10.361,10.361,0,0,1-.667-3.855V59.237a10.364,10.364,0,0,1,.667-3.855,8.811,8.811,0,0,1,1.757-2.831,7.167,7.167,0,0,1,2.521-1.741,7.836,7.836,0,0,1,2.994-.586,6.257,6.257,0,0,1,3.27.775,8.719,8.719,0,0,1,2.163,1.808V44.238h4.946V67.989h-4.946Zm0.065-8.752a5.561,5.561,0,0,0-.341-1.982,4.913,4.913,0,0,0-.911-1.539,4.032,4.032,0,0,0-4.62-.983,4.1,4.1,0,0,0-1.351.983,4.782,4.782,0,0,0-.927,1.523,5.506,5.506,0,0,0-.342,2V59.3a5.542,5.542,0,0,0,.342,1.982,4.746,4.746,0,0,0,.927,1.539,4.1,4.1,0,0,0,1.351.983,3.982,3.982,0,0,0,4.62-.983,4.913,4.913,0,0,0,.911-1.539,5.564,5.564,0,0,0,.341-1.982V59.237ZM42.042,84.682a7.106,7.106,0,0,1-1.968,2.505A8.531,8.531,0,0,1,37.145,88.7a12.406,12.406,0,0,1-3.6.5H29.744v6.832h-5.01V73.262h9.305a10.953,10.953,0,0,1,3.66.569,7.774,7.774,0,0,1,2.733,1.61,7.045,7.045,0,0,1,1.724,2.489,8.274,8.274,0,0,1,.6,3.2V81.2A7.988,7.988,0,0,1,42.042,84.682Zm-4.36-3.449a3.107,3.107,0,0,0-1.09-2.57,4.615,4.615,0,0,0-2.977-.879H29.744v6.963h3.969a4.075,4.075,0,0,0,2.928-.992A3.258,3.258,0,0,0,37.682,81.3V81.233Zm18.48,14.8V94.15a6.868,6.868,0,0,1-2.18,1.611,7.176,7.176,0,0,1-3.091.6,7.731,7.731,0,0,1-2.326-.342A5.456,5.456,0,0,1,46.662,95a4.9,4.9,0,0,1-1.285-1.676,5.281,5.281,0,0,1-.472-2.294V90.962a5.471,5.471,0,0,1,.521-2.473,4.746,4.746,0,0,1,1.448-1.724,6.5,6.5,0,0,1,2.212-1.025,11.071,11.071,0,0,1,2.847-.342,12.181,12.181,0,0,1,2.326.2,14.618,14.618,0,0,1,1.936.52V85.821a2.965,2.965,0,0,0-.944-2.375,4.185,4.185,0,0,0-2.8-.813,11.626,11.626,0,0,0-2.522.244,17.017,17.017,0,0,0-2.294.7L46.4,79.8A19.442,19.442,0,0,1,49.4,78.793a15.764,15.764,0,0,1,3.774-.39q4.067,0,5.922,1.985a7.788,7.788,0,0,1,1.855,5.531V96.037H56.163Zm0.1-7.028a7.585,7.585,0,0,0-1.448-.472,7.815,7.815,0,0,0-1.708-.179,4.414,4.414,0,0,0-2.505.618,2.029,2.029,0,0,0-.911,1.789v0.065a1.827,1.827,0,0,0,.748,1.562,3.2,3.2,0,0,0,1.952.553A4.373,4.373,0,0,0,55.2,92.1a2.7,2.7,0,0,0,1.057-2.212V89.009Zm19.2-5.564a5.1,5.1,0,0,0-3.888,1.5A6.581,6.581,0,0,0,70.153,89.6v6.442H65.207V78.6h4.945v3.514a7.253,7.253,0,0,1,2.05-2.863,4.989,4.989,0,0,1,3.514-.976v5.173h-0.26ZM89.024,96.037V94.15a6.867,6.867,0,0,1-2.18,1.611,7.176,7.176,0,0,1-3.091.6,7.732,7.732,0,0,1-2.326-.342A5.455,5.455,0,0,1,79.523,95a4.9,4.9,0,0,1-1.285-1.676,5.282,5.282,0,0,1-.472-2.294V90.962a5.471,5.471,0,0,1,.52-2.473,4.746,4.746,0,0,1,1.448-1.724,6.5,6.5,0,0,1,2.212-1.025,11.071,11.071,0,0,1,2.847-.342,12.182,12.182,0,0,1,2.326.2,14.618,14.618,0,0,1,1.936.52V85.821a2.965,2.965,0,0,0-.944-2.375,4.185,4.185,0,0,0-2.8-.813,11.626,11.626,0,0,0-2.522.244,17.02,17.02,0,0,0-2.294.7L79.263,79.8a19.443,19.443,0,0,1,2.993-1.009,15.763,15.763,0,0,1,3.774-.39q4.067,0,5.922,1.985a7.788,7.788,0,0,1,1.855,5.531V96.037H89.024Zm0.1-7.028a7.584,7.584,0,0,0-1.448-.472,7.816,7.816,0,0,0-1.708-.179,4.414,4.414,0,0,0-2.505.618,2.029,2.029,0,0,0-.911,1.789v0.065a1.827,1.827,0,0,0,.748,1.562,3.2,3.2,0,0,0,1.952.553,4.372,4.372,0,0,0,2.814-.846,2.7,2.7,0,0,0,1.057-2.212V89.009Zm21.539,7.028V93.554a7.832,7.832,0,0,1-2.2,2.018,6.086,6.086,0,0,1-3.238.791,7.74,7.74,0,0,1-2.96-.586,7.316,7.316,0,0,1-2.538-1.741,8.657,8.657,0,0,1-1.773-2.831,10.363,10.363,0,0,1-.667-3.856V87.285a10.366,10.366,0,0,1,.667-3.855A8.816,8.816,0,0,1,99.712,80.6a7.164,7.164,0,0,1,2.522-1.741,7.827,7.827,0,0,1,2.993-.586,6.252,6.252,0,0,1,3.27.775,8.722,8.722,0,0,1,2.164,1.808V72.286h4.945V96.037H110.66Zm0.065-8.752a5.539,5.539,0,0,0-.342-1.982,4.913,4.913,0,0,0-.911-1.539,4.032,4.032,0,0,0-4.62-.983,4.088,4.088,0,0,0-1.35.983,4.747,4.747,0,0,0-.927,1.523,5.506,5.506,0,0,0-.342,2V87.35a5.542,5.542,0,0,0,.342,1.982,4.71,4.71,0,0,0,.927,1.539,4.088,4.088,0,0,0,1.35.983,3.982,3.982,0,0,0,4.62-.983,4.912,4.912,0,0,0,.911-1.539,5.542,5.542,0,0,0,.342-1.982V87.285Zm9.4-10.607V72.286h5.2v4.392h-5.2Zm0.13,19.359V78.6H125.2V96.037h-4.945Zm21.88-2.782A4.64,4.64,0,0,1,140.723,95a6.387,6.387,0,0,1-2.131,1.025,9.684,9.684,0,0,1-2.62.342,12.218,12.218,0,0,1-7.483-2.635l2.115-3.254a11.751,11.751,0,0,0,2.847,1.562,7.7,7.7,0,0,0,2.652.521,2.759,2.759,0,0,0,1.578-.358,1.105,1.105,0,0,0,.5-0.944V91.189a0.938,0.938,0,0,0-.293-0.683,2.464,2.464,0,0,0-.8-0.5,11.813,11.813,0,0,0-1.155-.407q-0.651-.2-1.367-0.423a18.4,18.4,0,0,1-1.838-.635,6.554,6.554,0,0,1-1.675-.976,4.751,4.751,0,0,1-1.22-1.48,4.483,4.483,0,0,1-.472-2.147V83.869a5.124,5.124,0,0,1,1.871-4.1,5.814,5.814,0,0,1,2.017-1.074,8.367,8.367,0,0,1,2.489-.358,11.188,11.188,0,0,1,3.367.537,12.477,12.477,0,0,1,3.14,1.48l-1.887,3.416a15.607,15.607,0,0,0-2.538-1.188,6.638,6.638,0,0,0-2.18-.439,2.263,2.263,0,0,0-1.366.342,1.038,1.038,0,0,0-.456.862v0.065a0.85,0.85,0,0,0,.293.634,3.229,3.229,0,0,0,.781.521,10.2,10.2,0,0,0,1.122.472q0.635,0.228,1.351.456,0.911,0.293,1.854.7a7.644,7.644,0,0,1,1.692.992,4.912,4.912,0,0,1,1.236,1.432,4.033,4.033,0,0,1,.488,2.05v0.065A5.812,5.812,0,0,1,142.138,93.255Zm20.3-4.832q-0.017.261-.049,0.618H150.256a4.163,4.163,0,0,0,1.48,2.554,4.431,4.431,0,0,0,2.782.862,5.506,5.506,0,0,0,2.212-.423,7.512,7.512,0,0,0,2.017-1.367l2.831,2.505a8.771,8.771,0,0,1-2.993,2.391,9.284,9.284,0,0,1-4.132.862,9.936,9.936,0,0,1-3.628-.651,8.4,8.4,0,0,1-2.9-1.854,8.585,8.585,0,0,1-1.9-2.847,9.453,9.453,0,0,1-.683-3.66V87.35a9.753,9.753,0,0,1,.634-3.514,8.941,8.941,0,0,1,1.773-2.9,8.271,8.271,0,0,1,6.215-2.668,8.495,8.495,0,0,1,3.774.781,7.7,7.7,0,0,1,2.652,2.1,8.739,8.739,0,0,1,1.561,3.026,12.523,12.523,0,0,1,.5,3.563v0.065Q162.457,88.164,162.44,88.424Zm-5.97-5.157a3.242,3.242,0,0,0-2.5-1.025,3.323,3.323,0,0,0-2.522,1.009,5.059,5.059,0,0,0-1.252,2.7h7.45A4.817,4.817,0,0,0,156.47,83.267Zm15.617-10v0.651l-1.529,14.381h-2.733L166.3,73.913V73.262h5.791Zm-5.531,22.775V90.831h5.238v5.206h-5.238Z" transform="translate(-24.719 -44.25)"/>
</svg>
